<?xml version="1.0" encoding="utf-8"?>
<!-- Generator: Adobe Illustrator 19.2.1, SVG Export Plug-In . SVG Version: 6.00 Build 0)  -->
<svg version="1.1" id="layer" xmlns="http://www.w3.org/2000/svg" xmlns:xlink="http://www.w3.org/1999/xlink" x="0px" y="0px"
	 viewBox="0 0 652 652" style="enable-background:new 0 0 652 652;" xml:space="preserve">
<style type="text/css">
	.st0{fill:#4057DF;}
	.st1{fill:#FFFFFF;}
</style>
<path class="st0" d="M198.7,234.7H36.9c-5.8,0-10.4,4.7-10.4,10.4v161.7c0,5.8,4.7,10.4,10.4,10.4h161.7c5.8,0,10.4-4.7,10.4-10.4
	V245.1C209.1,239.3,204.4,234.7,198.7,234.7z M297.6,275c1.8,0,3.3,0.1,4.6,0.3c1.3,0.2,2.5,0.4,3.6,0.7V295h-6.6
	c-4,0-7.7,0.6-11.4,1.7c-3.6,1.2-6.8,2.9-9.4,5.2c-2.7,2.3-4.8,5.2-6.3,8.6c-1.6,3.5-2.4,7.5-2.4,12.1v53.3h-21.5V276h19.9v13.4
	c3.6-4.7,7.9-8.3,13-10.8C286.2,276.2,291.7,275,297.6,275z M409.2,334c0,6.8-1.1,12.9-3.4,18.3c-2.3,5.4-5.3,10.1-9.2,13.9
	c-3.9,3.9-8.5,6.8-13.9,8.8c-5.4,2-11.2,3.1-17.3,3.1c-6.3,0-12.1-1-17.4-3.1c-5.3-2-10-5-13.9-8.8c-4-3.9-7.1-8.5-9.3-13.9
	c-2.3-5.4-3.4-11.5-3.4-18.3v-58h21.5v59.6c0,7.1,2.2,12.6,6.6,16.7s9.7,6.1,16,6.1c6.1,0,11.4-2,15.7-6.1c4.3-4.1,6.5-9.6,6.5-16.7
	V276h21.7V334z M480.2,273.8c5.9,0,11.1,1,15.8,2.9c4.6,2,8.6,4.7,11.9,8.1c3.3,3.5,5.8,7.6,7.5,12.5c1.7,4.9,2.6,10.2,2.6,16.1
	v62.4h-21.7v-59.6c0-6.9-1.9-12.5-5.8-16.8c-3.9-4.3-9.2-6.4-15.9-6.4c-6.7,0-12.2,2.1-16.5,6.4c-4.3,4.3-6.5,9.9-6.5,16.8v59.6H430
	V276h19.9v10.2c3.6-3.9,7.9-7,13-9.2C468,274.9,473.8,273.8,480.2,273.8z M588.8,273.8c5.9,0,11.1,1,15.8,2.9
	c4.6,2,8.6,4.7,11.9,8.1c3.3,3.5,5.8,7.6,7.5,12.5c1.7,4.9,2.6,10.2,2.6,16.1v62.4h-21.7v-59.6c0-6.9-1.9-12.5-5.8-16.8
	c-3.9-4.3-9.2-6.4-15.9-6.4c-6.7,0-12.2,2.1-16.5,6.4c-4.3,4.3-6.5,9.9-6.5,16.8v59.6h-21.5V276h19.9v10.2c3.6-3.9,7.9-7,13-9.2
	C576.6,274.9,582.4,273.8,588.8,273.8z"/>
<path class="st1" d="M113.6,371.6v-97.8c-22.9,0-41.5,18.6-41.5,41.5v56.3H113.6z M163.5,273.8h-2.4c-21.6,0-39.1,17.5-39.1,39.1
	h41.5V273.8z"/>
</svg>
